<svg width="52" height="62" viewBox="0 0 52 62" fill="none" xmlns="http://www.w3.org/2000/svg">
<path d="M25.4634 47.448V30.9672C24.5864 30.8386 23.785 30.3989 23.2052 29.7285C22.6254 29.0581 22.306 28.2016 22.3052 27.3153V27.0088C22.3142 26.8599 22.2787 26.7117 22.203 26.5832C22.0118 26.3806 21.7756 26.2261 21.5135 26.132L9.37426 21.4755L8.91457 21.2627C8.55883 21.0993 8.17371 21.0095 7.78237 20.9988C7.46977 21.0051 7.16898 21.1194 6.9311 21.3223C6.36017 21.9707 5.5796 22.398 4.72569 22.5296C3.87179 22.6611 2.99881 22.4885 2.25921 22.0419C1.51961 21.5953 0.960388 20.9031 0.679199 20.0862C0.398009 19.2692 0.412721 18.3795 0.720768 17.5723C1.02881 16.7651 1.61062 16.0917 2.36458 15.6698C3.11854 15.2479 3.99675 15.1043 4.84584 15.264C5.69493 15.4237 6.46094 15.8765 7.01012 16.5435C7.55929 17.2105 7.85673 18.0492 7.85048 18.9132C7.87475 19.2347 8.01372 19.5368 8.24206 19.7644C8.54452 20.0185 8.89474 20.2095 9.27211 20.3263L9.76585 20.4795L21.7689 25.0849L21.9136 25.1445C22.1838 25.2516 22.4756 25.2924 22.7648 25.2637H22.8585C22.7675 24.9857 22.6096 24.7343 22.3988 24.5316L13.0348 15.4995L12.6517 15.1335C12.3897 14.8423 12.0711 14.6077 11.7153 14.444C11.4379 14.3586 11.1413 14.3586 10.864 14.444C10.2083 14.7635 9.47256 14.8813 8.74989 14.7825C8.02721 14.6837 7.35009 14.3727 6.80424 13.8889C6.2584 13.4051 5.86836 12.7702 5.68351 12.0646C5.49866 11.359 5.52731 10.6144 5.76582 9.92513C6.00434 9.23583 6.44199 8.63279 7.0234 8.19234C7.6048 7.75189 8.30381 7.49383 9.03194 7.45084C9.76008 7.40784 10.4846 7.58184 11.1138 7.95081C11.743 8.31978 12.2486 8.86713 12.5666 9.52358C12.798 9.99781 12.924 10.5166 12.9357 11.0442C12.9475 11.5717 12.8448 12.0956 12.6347 12.5797C12.5465 12.8766 12.5615 13.1947 12.6772 13.482C12.8568 13.8347 13.1058 14.1474 13.4093 14.4014L13.7839 14.7589L23.0287 23.6803L23.1394 23.791C23.3341 23.9874 23.5737 24.1335 23.8375 24.2166H23.9396C23.968 23.9259 23.9211 23.6327 23.8034 23.3653L18.6957 11.3879L18.4914 10.9026C18.3619 10.5339 18.1592 10.1952 17.8955 9.90665C17.6744 9.69775 17.3897 9.56889 17.0868 9.5406C16.2264 9.58107 15.379 9.31821 14.6926 8.79786C14.0061 8.27752 13.5241 7.53271 13.3306 6.69333C13.137 5.85396 13.2443 4.97328 13.6337 4.20491C14.023 3.43653 14.6697 2.8292 15.461 2.48886C16.2523 2.14851 17.138 2.09674 17.9636 2.34257C18.7892 2.5884 19.5022 3.11624 19.9785 3.83402C20.4547 4.5518 20.6638 5.41398 20.5694 6.27018C20.475 7.12639 20.0831 7.92229 19.4619 8.51907C19.265 8.75983 19.1542 9.05943 19.1469 9.37035C19.1666 9.77623 19.271 10.1735 19.4534 10.5366L19.6492 11.0133L24.6717 22.8375L24.7313 22.9823C24.8391 23.2361 25.0019 23.4629 25.208 23.6463L25.2931 23.6888C25.4285 23.4255 25.4985 23.1336 25.4974 22.8375V9.26819C25.521 8.87816 25.466 8.48736 25.3357 8.11897C25.2073 7.84514 24.9958 7.61876 24.7313 7.472C23.9221 7.1724 23.2441 6.59782 22.8158 5.84879C22.3875 5.09976 22.2362 4.22398 22.3884 3.37466C22.5405 2.52535 22.9865 1.75658 23.6483 1.20288C24.31 0.649167 25.1454 0.345772 26.0082 0.345772C26.8711 0.345772 27.7064 0.649167 28.3682 1.20288C29.0299 1.75658 29.4759 2.52535 29.6281 3.37466C29.7803 4.22398 29.629 5.09976 29.2007 5.84879C28.7723 6.59782 28.0943 7.1724 27.2851 7.472C27.0115 7.61612 26.793 7.84653 26.6637 8.12748C26.5367 8.50244 26.4847 8.8987 26.5105 9.29373V22.795C26.5088 23.0718 26.5699 23.3454 26.6892 23.5952C26.7053 23.6069 26.7247 23.6133 26.7446 23.6133C26.7645 23.6133 26.7838 23.6069 26.7999 23.5952C27.006 23.4118 27.1688 23.1851 27.2766 22.9312L27.3362 22.7865L32.3502 10.9622L32.5545 10.4855C32.7232 10.1308 32.8187 9.74574 32.8355 9.35332C32.8282 9.0424 32.7174 8.7428 32.5205 8.50204C31.8993 7.90526 31.5074 7.10936 31.4129 6.25316C31.3185 5.39695 31.5277 4.53477 32.0039 3.81699C32.4801 3.09921 33.1932 2.57138 34.0188 2.32555C34.8444 2.07971 35.73 2.13149 36.5213 2.47183C37.3126 2.81218 37.9594 3.4195 38.3487 4.18788C38.7381 4.95626 38.8453 5.83693 38.6518 6.67631C38.4583 7.51568 37.9763 8.26049 37.2898 8.78084C36.6033 9.30118 35.756 9.56404 34.8955 9.52358C34.5781 9.54375 34.2773 9.67308 34.0443 9.88963C33.7806 10.1781 33.5779 10.5169 33.4484 10.8856L33.2441 11.3708L28.2386 23.3058C28.1281 23.5606 28.0758 23.8369 28.0853 24.1145C28.1014 24.1262 28.1208 24.1326 28.1407 24.1326C28.1606 24.1326 28.1799 24.1262 28.196 24.1145C28.4598 24.0314 28.6994 23.8853 28.894 23.6888L29.0047 23.5782L38.2411 14.6568L38.6071 14.2992C38.9056 14.0425 39.1513 13.7303 39.3307 13.3799C39.4367 13.0884 39.4367 12.7689 39.3307 12.4775C38.9908 11.6859 38.9396 10.8001 39.186 9.97455C39.4324 9.14904 39.9608 8.43624 40.6791 7.96051C41.3973 7.48478 42.2598 7.27631 43.1161 7.37147C43.9723 7.46663 44.7679 7.85938 45.3642 8.4812C45.9605 9.10302 46.3195 9.91445 46.3787 10.7739C46.4378 11.6334 46.1934 12.4864 45.688 13.184C45.1825 13.8817 44.4482 14.3798 43.6131 14.5914C42.7779 14.8029 41.895 14.7146 41.1184 14.3418C40.841 14.2565 40.5444 14.2565 40.2671 14.3418C39.9113 14.5055 39.5926 14.7402 39.3307 15.0313L38.9476 15.3974L29.5836 24.4294C29.3801 24.6165 29.2253 24.8502 29.1324 25.1105C29.1373 25.1303 29.148 25.1482 29.1632 25.1618C29.1784 25.1755 29.1973 25.1843 29.2175 25.1871C29.5067 25.2158 29.7986 25.175 30.0688 25.0679L30.2816 25.0083L42.2676 20.4029L42.7443 20.2156C43.1231 20.1022 43.474 19.9108 43.7744 19.6538C44.0027 19.4261 44.1417 19.124 44.166 18.8025C44.1605 17.9408 44.4577 17.1045 45.0059 16.4397C45.5541 15.7748 46.3183 15.3235 47.1652 15.1646C48.0122 15.0057 48.888 15.1493 49.6399 15.5702C50.3918 15.9912 50.972 16.6628 51.2792 17.4679C51.5865 18.273 51.6012 19.1604 51.3209 19.9752C51.0407 20.7901 50.4832 21.4806 49.7457 21.9264C49.0082 22.3721 48.1376 22.5447 47.2859 22.4141C46.4341 22.2835 45.6553 21.8579 45.0853 21.2116C44.8474 21.0087 44.5467 20.8944 44.2341 20.8881C43.8427 20.8988 43.4576 20.9886 43.1019 21.152L42.6081 21.3393L30.4434 26.115C30.1812 26.209 29.945 26.3636 29.7538 26.5661C29.669 26.7191 29.6333 26.8945 29.6517 27.0684C29.6602 27.1191 29.6602 27.1709 29.6517 27.2216V27.2982C29.6555 28.185 29.3404 29.0435 28.7637 29.7171C28.187 30.3907 27.3872 30.8344 26.5105 30.9672V47.448H25.4634Z" fill="#DE0A2B"/>
<path d="M27.7286 36.7217C34.9474 33.2655 42.6089 30.1158 50.5428 28.6687C51.8282 32.0738 47.7762 34.4318 45.2649 35.6747C40.0295 37.9646 33.1597 38.8414 27.7286 36.7132M24.5108 35.9726C17.3515 32.4909 9.69004 29.3071 1.78167 28.0813C4.04607 25.0848 8.50676 25.3061 11.7927 25.9531C14.5014 26.6218 17.0359 27.8617 19.2264 29.5897C21.4169 31.3178 23.2128 33.494 24.4937 35.9726M24.2724 36.7132C18.8242 38.8414 11.9629 37.9561 6.71908 35.6747C4.20781 34.4233 0.155734 32.0652 1.44116 28.6687C9.37506 30.0733 17.0366 33.2655 24.2724 36.7217M27.4902 35.9811C28.773 33.5007 30.5715 31.3233 32.7651 29.5952C34.9587 27.867 37.4965 26.6281 40.2083 25.9616C43.4942 25.3146 47.9549 25.1103 50.2193 28.0898C42.311 29.3156 34.6495 32.4909 27.4902 35.9811Z" fill="#6E963C"/>
<path d="M51.4788 55.9013C49.6091 56.6484 47.6182 57.0466 45.605 57.0761C42.0566 57.0457 38.6166 55.8492 35.8153 53.671C33.0352 55.8909 29.5832 57.1 26.0256 57.1C22.468 57.1 19.016 55.8909 16.2359 53.671C14.0566 55.4288 11.4439 56.5668 8.6725 56.9653C5.90112 57.3638 3.07357 57.008 0.487305 55.9354V53.1517C2.33758 53.9717 4.3373 54.4006 6.36111 54.4116C9.97664 54.3695 13.4591 53.0417 16.1849 50.666C18.8805 53.067 22.3646 54.3937 25.9745 54.3937C29.5845 54.3937 33.0686 53.067 35.7642 50.666C38.4768 53.0413 41.9486 54.3696 45.5539 54.4116C47.6096 54.3924 49.6389 53.9459 51.5128 53.1006V55.9013H51.4788ZM51.4788 60.4301C48.9035 61.4944 46.0902 61.8496 43.3313 61.4589C40.5723 61.0681 37.9683 59.9457 35.7898 58.2083C33.0097 60.4282 29.5577 61.6373 26.0001 61.6373C22.4424 61.6373 18.9905 60.4282 16.2104 58.2083C14.0337 59.9614 11.4255 61.0967 8.65915 61.4951C5.8928 61.8935 3.07022 61.5404 0.487305 60.4727V57.6805C2.33758 58.5005 4.3373 58.9294 6.36111 58.9404C9.97664 58.8983 13.4591 57.5705 16.1849 55.1948C18.8805 57.5958 22.3646 58.9225 25.9745 58.9225C29.5845 58.9225 33.0686 57.5958 35.7642 55.1948C38.4776 57.5688 41.9489 58.8969 45.5539 58.9404C47.6067 58.9358 49.6361 58.5038 51.5128 57.672V60.4386L51.4788 60.4301ZM34.0532 47.2013C34.7333 46.616 35.309 45.9194 35.7557 45.1412C36.205 45.9175 36.7804 46.6138 37.4583 47.2013C39.7345 49.0516 42.5696 50.0777 45.5028 50.1126C47.5756 50.0918 49.6153 49.5906 51.4618 48.6484V51.4832C49.6037 52.2544 47.6165 52.6675 45.605 52.7005C42.028 52.6601 38.5729 51.3952 35.8153 49.1166C33.0761 51.4263 29.6086 52.6931 26.0256 52.6931C22.4427 52.6931 18.9751 51.4263 16.2359 49.1166C14.0924 50.9397 11.4824 52.1279 8.69994 52.5476C5.91749 52.9672 3.07313 52.6015 0.487305 51.4917V48.657C2.30662 49.5901 4.31664 50.0912 6.36111 50.1212C9.30866 50.086 12.1581 49.0572 14.4482 47.2013C15.1261 46.6138 15.7015 45.9175 16.1508 45.1412C16.6001 45.9175 17.1755 46.6138 17.8534 47.2013C20.1215 49.0978 22.984 50.1368 25.9405 50.1368C28.897 50.1368 31.7595 49.0978 34.0276 47.2013" fill="#0073BD"/>
</svg>
