<svg id="Layer_1" data-name="Layer 1" xmlns="http://www.w3.org/2000/svg" viewBox="0 0 177.05 93.26"><defs><style>.cls-1{fill:#00285d;}.cls-1,.cls-2{fill-rule:evenodd;}.cls-2{fill:#fbb727;}</style></defs><title>Logo</title><path class="cls-1" d="M31.13,86C20.5,81.28,11.05,82.26,0,88.42v-6.5C11.68,75,21.2,74.78,32.25,79.75c11.4,5.18,19.87,9.38,30.85,4.2v6.57c-9.09,6.86-23.78-.84-32-4.47"/><path class="cls-1" d="M31.13,73C20.5,68.35,11.05,69.26,0,75.48V68.9C11.68,62,21.2,61.77,32.25,66.81c11.4,5.1,19.87,9.23,30.85,4.12v6.72c-9.09,6.86-23.78-1-32-4.62"/><path class="cls-2" d="M35.12,62.12C25.67,56.8,10.77,54.28,0,61.35,6.72,42.81,14.14,23.71,21.34,4.9L38.76,55.68C42,46.38,45.47,35.82,48.9,25.32L63.1,64.15c-11.4,6.15-20.63,1-28-2"/><path class="cls-1" d="M48.9,25.18L38.75,55.89,21.34,5.17,0,61.21V6.43C0.07,3.64,3.57.28,6.86,0H56.95A6.87,6.87,0,0,1,63.1,6.51V64.15Z"/><path class="cls-1" d="M161.31,61.28V59.74a4.17,4.17,0,0,0,1.75-.63,1.73,1.73,0,0,0,.91-1.4V53.8a23.89,23.89,0,0,0-2.66.91v-1c0.77-.28,1.68-0.49,2.66-0.77v-2.3a3.13,3.13,0,0,0-.7-2.1,2.86,2.86,0,0,0-2-.63v-1h0.91a4.55,4.55,0,0,1,3.29,1,4.84,4.84,0,0,1,1,3.36v7a3.61,3.61,0,0,0,.14,1.12,0.58,0.58,0,0,0,.56.28,0.76,0.76,0,0,0,.49-0.14,5.21,5.21,0,0,0,.7-0.42l0.07,0.76a4.4,4.4,0,0,1-1.12,1.33,2.37,2.37,0,0,1-1.26.49,2,2,0,0,1-1.47-.56,3.63,3.63,0,0,1-.7-1.75,11.06,11.06,0,0,1-2.38,1.75c-0.07.07-.21,0.07-0.28,0.14m8.4,0.14V60.64A3,3,0,0,0,171.6,60a3.6,3.6,0,0,0,.56-2.24V42.46l-2.31-1.26V41l4.62-1.61h0.28V57.85a3.29,3.29,0,0,0,.56,2.1,2.54,2.54,0,0,0,1.75.69v0.77h-7.34Zm-8.19,29.94V90.59a3,3,0,0,0,1.89-.7,3.67,3.67,0,0,0,.49-2.24V72.4l-2.24-1.26V70.93l4.61-1.61h0.28V87.79a3.85,3.85,0,0,0,.49,2.1,3,3,0,0,0,1.81.7v0.76h-7.34Zm-0.21-44.49v1a0.43,0.43,0,0,0-.28-0.07,3,3,0,0,0-1.68.49,1.27,1.27,0,0,0-.71,1.12,3.55,3.55,0,0,0,.15.76l0.63,1.26-2,.91a3.52,3.52,0,0,1-.55-1,2.34,2.34,0,0,1-.21-1,3.06,3.06,0,0,1,1.61-2.59,7.58,7.58,0,0,1,3.08-1m0,6.85v1a7.21,7.21,0,0,0-1.47.77,2.45,2.45,0,0,0-1.26,2,2,2,0,0,0,.7,1.61,2.27,2.27,0,0,0,1.68.63h0.35v1.54a5.22,5.22,0,0,1-2,.42,2.94,2.94,0,0,1-2.31-1,3,3,0,0,1-.91-2.37,3.65,3.65,0,0,1,1.68-3,17.32,17.32,0,0,1,3.57-1.61m-21.2,35V80.23a8.21,8.21,0,0,1,1-1.18,6.78,6.78,0,0,1,5.11-2.24,6.28,6.28,0,0,1,3.35.84,2.58,2.58,0,0,1,1.33,2.17,1.42,1.42,0,0,1-.28.91,1.11,1.11,0,0,1-.77.35,1.66,1.66,0,0,1-1.47-1.26l-0.28-.56a1.94,1.94,0,0,0-1-1,2.6,2.6,0,0,0-1.47-.41,3.57,3.57,0,0,0-2.94,1.46A5.89,5.89,0,0,0,141.52,83a7.43,7.43,0,0,0,1.33,4.68,4.17,4.17,0,0,0,3.42,1.75,6.44,6.44,0,0,0,2.17-.49,7.82,7.82,0,0,0,2-1.47L151,88a8.9,8.9,0,0,1-2.59,2.73,6.33,6.33,0,0,1-3.14.91,5.88,5.88,0,0,1-4.55-2l-0.63-.84m0-27.35V60.58a2.6,2.6,0,0,0,1.54-.63,3.65,3.65,0,0,0,.49-2.24V49.95l-2-1.13V48.41l4.34-1.54h0.28v2.45a7,7,0,0,1,2.38-1.82,5.08,5.08,0,0,1,2.45-.63,3.73,3.73,0,0,1,3.09,1.26,5.61,5.61,0,0,1,1,3.7v6a3.35,3.35,0,0,0,.49,2.1,2.71,2.71,0,0,0,1.75.69v0.77h-7.07V60.64a2.71,2.71,0,0,0,1.75-.69,3.33,3.33,0,0,0,.49-2.1v-6a4,4,0,0,0-.56-2.31,2.55,2.55,0,0,0-2-.7,6.1,6.1,0,0,0-1.89.35,6.6,6.6,0,0,0-1.89,1.05v7.62a3.35,3.35,0,0,0,.49,2.1,3,3,0,0,0,1.82.69v0.77h-6.93Zm0-4.62a9.05,9.05,0,0,0,.42-2.8,7.33,7.33,0,0,0-.42-2.52V56.8Zm0-25.32v-1a3.64,3.64,0,0,0,1.12-1,7.3,7.3,0,0,0,1-4,10.91,10.91,0,0,0-1.26-5.6,11.18,11.18,0,0,0-.84-1V17.21a6.46,6.46,0,0,1,2.8,1.75,6.85,6.85,0,0,1,2,5.11,8,8,0,0,1-1.89,5.45,6.22,6.22,0,0,1-2.94,2m16.37,37.78a2,2,0,0,1,1.19.49,1.84,1.84,0,0,1,.48,1.12,1.67,1.67,0,0,1-.48,1.12,1.69,1.69,0,0,1-1.26.49,1.65,1.65,0,0,1-1.19-.49,1.39,1.39,0,0,1-.48-1.12,1.41,1.41,0,0,1,.48-1.12,2,2,0,0,1,1.19-.49h0.07Zm-4.13,22.1V90.59a3,3,0,0,0,2.1-.7,3.17,3.17,0,0,0,.63-2.24V79.88l-2.24-1.26V78.42l4.55-1.61h0.35v11a3.83,3.83,0,0,0,.49,2.1,2.76,2.76,0,0,0,1.75.7v0.76h-7.63ZM140.12,17.21v1.68a3.47,3.47,0,0,0-.77-0.7V17c0.28,0.07.56,0.14,0.77,0.21m0,13.22v1a2.39,2.39,0,0,1-.77.14V30.78a1.61,1.61,0,0,0,.77-0.35m0,18v0.42l-0.28-.14V48.48Zm0,3.08V56.8a8.15,8.15,0,0,1-.77,1.82V49.87a6.75,6.75,0,0,1,.77,1.61m0,9.09v0.84h-0.35V60.64a3.14,3.14,0,0,0,.35-0.06m0,19.65v8.54a5.8,5.8,0,0,1-.77-1.82V82.13a7,7,0,0,1,.77-1.89m-0.77,11.12V90.51a0.3,0.3,0,0,0,.28.08v0.76h-0.28Zm0-74.36v1.19a2.85,2.85,0,0,0-1.26-.35V16.93a7.32,7.32,0,0,1,1.26.07m0,13.78v0.84a5.26,5.26,0,0,1-1.05.07h-0.21V30.85h0.49a3.08,3.08,0,0,0,.77-0.07m0,19.09v8.75c-0.21.28-.49,0.56-0.7,0.84s-0.35.42-.56,0.63V48.48a2.51,2.51,0,0,1,.42.49,11,11,0,0,1,.84.91m0,32.25V87a6.82,6.82,0,0,1-.35-2.44,6.7,6.7,0,0,1,.35-2.38m0,8.39v0.84h-1.26V90.1a2.55,2.55,0,0,0,1.26.42m-1.26-73.59v0.91c-0.14,0-.28-0.07-0.49-0.07a3,3,0,0,0-2.65,1.54,7.22,7.22,0,0,0-1,3.92,9.89,9.89,0,0,0,1.32,5.45,4.22,4.22,0,0,0,2.8,2.17v0.84a6.45,6.45,0,0,1-4.89-2.1,7.07,7.07,0,0,1-1.68-2.79V21.69A7.93,7.93,0,0,1,133.13,19a6.45,6.45,0,0,1,4.89-2.1h0.07Zm0,31.55V60.09a6.17,6.17,0,0,1-4.19,1.61,6.85,6.85,0,0,1-2.39-.42V59.53a3.58,3.58,0,0,0,2.66,1.26,2.85,2.85,0,0,0,2.59-1.4,6.76,6.76,0,0,0,1-4,11.11,11.11,0,0,0-1.2-5.53,3.87,3.87,0,0,0-3.35-2.17,3.4,3.4,0,0,0-1.68.49V47.15a7.43,7.43,0,0,1,2.1-.28,6.73,6.73,0,0,1,4.48,1.61m0,41.62v1.26h-5.6V90.59a2.61,2.61,0,0,0,1.82-.7,3.36,3.36,0,0,0,.49-2.1v-6a3.5,3.5,0,0,0-.63-2.31,2.39,2.39,0,0,0-2-.71,2.48,2.48,0,0,0-.7.08V77.09a5.16,5.16,0,0,1,1.76-.28,3.83,3.83,0,0,1,3.07,1.26,6.22,6.22,0,0,1,1,3.78v5.94a3.9,3.9,0,0,0,.49,2.1,1,1,0,0,0,.28.21m-6.58-70.93h0.42V17.91h-0.42v1.26Zm0-1.25v1.25h-2.86a5.71,5.71,0,0,1,.56,1.33,4.38,4.38,0,0,1,.21,1.33,4.2,4.2,0,0,1-1.47,3.36,3.59,3.59,0,0,1-.63.49V17.56a11.68,11.68,0,0,0,2.38.35h1.81Zm0,3.78a9.82,9.82,0,0,0-.34,2.52,10.44,10.44,0,0,0,.34,2.59V21.69Zm0,25.46V48.2a4.74,4.74,0,0,0-1,1,6.74,6.74,0,0,0-1,4,9.8,9.8,0,0,0,1.33,5.39c0.21,0.35.42,0.63,0.63,0.91v1.75a6.13,6.13,0,0,1-2.72-1.75,6.83,6.83,0,0,1-1.47-2.31v-6a5.91,5.91,0,0,1,1.4-2.24,6.5,6.5,0,0,1,2.79-1.82m0,29.94v1.75a3.69,3.69,0,0,0-1.18.28,4.94,4.94,0,0,0-1.89,1v7.62a3.33,3.33,0,0,0,.49,2.1,2.77,2.77,0,0,0,1.75.7l0.07,0.76h-3.43V77.09l0.84-.28h0.29v2.45a8.82,8.82,0,0,1,2.31-1.82,7.83,7.83,0,0,1,.76-0.35m-4.19-15.67h0.49V60.64c-0.21,0-.35-0.06-0.49-0.06v0.84Zm0-25.11V35a2.42,2.42,0,0,0,.63-0.28,2.4,2.4,0,0,0,1.75-2,1.49,1.49,0,0,0-1-1.39c-0.35-.07-0.84-0.21-1.4-0.28V28.47a4,4,0,0,1,2.73.83,2.76,2.76,0,0,1,1,2.25,4.85,4.85,0,0,1-2.45,4,12.36,12.36,0,0,1-1.33.77m0-18.75v8.12a5.49,5.49,0,0,1-2.87.77V25.6a2,2,0,0,0,1.54-.91,4.06,4.06,0,0,0,.7-2.59,5.32,5.32,0,0,0-.84-3.08,3,3,0,0,0-1.4-1.12v-1c0.56,0.07,1.26.28,2.1,0.49a2.79,2.79,0,0,0,.76.14m0,10.91V31c-0.7-.07-1.47-0.07-2.52-0.07h-0.35V28.61H125c1.12-.07,1.89-0.14,2.31-0.14m0,6.5v1.33a9.63,9.63,0,0,1-2.87.84V35.53a11.41,11.41,0,0,0,2.87-.56m0,16.23v6a8.69,8.69,0,0,1-.56-3.08,8.22,8.22,0,0,1,.56-2.94m0,9.38a2.1,2.1,0,0,1-1.26-.63,3.34,3.34,0,0,1-.49-2.1v-11h-0.35l-0.77.28V61.42h2.87V60.58Zm0,16.51V91.36h-2.87v-1a1.59,1.59,0,0,0,.84-0.49,3.63,3.63,0,0,0,.56-2.24V79.88l-1.4-.77V78.07Zm-2.87-34.56V39.38a1.39,1.39,0,0,1,1,.42,1.51,1.51,0,0,1,.49,1.12,1.4,1.4,0,0,1-.49,1.12,1.64,1.64,0,0,1-1,.49m0-25.61v1a2.46,2.46,0,0,0-.77-0.14,2.59,2.59,0,0,0-2,1,4.37,4.37,0,0,0-.76,2.59,5.14,5.14,0,0,0,.91,3.08,2.73,2.73,0,0,0,2.31,1.19h0.35v0.84a0.61,0.61,0,0,1-.35.07,6.36,6.36,0,0,1-1-.14,13.27,13.27,0,0,1-1.4-.28,11.87,11.87,0,0,0-.91.91,1.45,1.45,0,0,0-.35.84,0.67,0.67,0,0,0,.42.63,3.13,3.13,0,0,0,1.33.21c0.62,0,1.4-.07,2.3-0.07v2.31H123c-0.62,0-1.26.07-2,.07a5.89,5.89,0,0,0-1.33,1.19,1.85,1.85,0,0,0-.42,1.12,1.9,1.9,0,0,0,1,1.68,6.7,6.7,0,0,0,3.15.56h1v1.61a14.46,14.46,0,0,1-1.75.07,7.09,7.09,0,0,1-3.92-.91,2.78,2.78,0,0,1-1.46-2.45,2.86,2.86,0,0,1,.55-1.68,6.41,6.41,0,0,1,2-1.33,3.25,3.25,0,0,1-1.19-.77,1.88,1.88,0,0,1-.35-1.05,2.09,2.09,0,0,1,.57-1.4,10.72,10.72,0,0,1,1.81-1.82A6,6,0,0,1,118.78,24a3.82,3.82,0,0,1-.63-2.17,4.47,4.47,0,0,1,1.61-3.5,5.79,5.79,0,0,1,4.13-1.4h0.56Zm0,22.46v3.15h-0.2A1.82,1.82,0,0,1,123,42a1.53,1.53,0,0,1,0-2.24,1.83,1.83,0,0,1,1.19-.49,0.26,0.26,0,0,1,.2.07m0,7.76V61.42h-4.27V60.64a3,3,0,0,0,2.09-.69,3.18,3.18,0,0,0,.64-2.24V49.87l-2.32-1.19V48.48Zm0,30.92v1.05l-0.91-.49V78.42Zm0,12.31v1h-1V90.59a4.49,4.49,0,0,0,1-.22m-15.25,0V76.88l1.54-.07v9.87a3.15,3.15,0,0,0,.7,2.3,2.37,2.37,0,0,0,2,.78,4.81,4.81,0,0,0,1.68-.36,11.58,11.58,0,0,0,2-1.19V80.38a2.82,2.82,0,0,0-.49-2,3.69,3.69,0,0,0-2-.49V77.09l5-.28V87.86a3.54,3.54,0,0,0,.35,1.89,2.14,2.14,0,0,0,1.4.34H122l0.07,0.77-5,.77V89.19a13,13,0,0,1-2.52,1.88,5.61,5.61,0,0,1-2.31.56,3.72,3.72,0,0,1-3.08-1.26m0-23.29v-1.9a7.48,7.48,0,0,0,2.38.28,11.62,11.62,0,0,0,4.4-.77c1.19-.56,1.76-1.26,1.76-2.1a1.27,1.27,0,0,0-1-1.33,11.1,11.1,0,0,0-3.85-.42h-1.82c-0.63.07-1.26,0.07-1.89,0.14V58.48a4,4,0,0,0,1,.14c0.7,0,1.68-.07,2.8-0.07s2-.14,2.38-0.14a4.25,4.25,0,0,1,2.73.84,2.74,2.74,0,0,1,1,2.24,4.84,4.84,0,0,1-2.45,4,10.4,10.4,0,0,1-5.95,1.68,12.13,12.13,0,0,1-1.61-.07m0-10.57V53a3.34,3.34,0,0,0,.7,1.4,2.81,2.81,0,0,0,2.31,1.26,2.24,2.24,0,0,0,1.89-1,4.06,4.06,0,0,0,.7-2.59,4.86,4.86,0,0,0-.91-3.08,2.48,2.48,0,0,0-2.1-1.26,2.38,2.38,0,0,0-2,1,3.85,3.85,0,0,0-.56,1.05V47.43a5.82,5.82,0,0,1,2.73-.56,11.2,11.2,0,0,1,2.73.49,12,12,0,0,0,3.15.49H120v1.26h-3.22a11.63,11.63,0,0,1,.56,1.33,4.8,4.8,0,0,1,.21,1.34A4.07,4.07,0,0,1,116,55.13a5.67,5.67,0,0,1-3.84,1.32,7,7,0,0,1-1-.14,12.46,12.46,0,0,1-1.33-.21,4.86,4.86,0,0,0-.56.42m0-25.18V29.8a4,4,0,0,0,1.75-.63,1.72,1.72,0,0,0,.91-1.4V23.85a23.55,23.55,0,0,0-2.66.91v-1a21.21,21.21,0,0,1,2.66-.77V20.7a2.8,2.8,0,0,0-.7-2.1,3.28,3.28,0,0,0-2-.7v-1h0.91A4.54,4.54,0,0,1,113.4,18a4.83,4.83,0,0,1,1,3.36v7a3.63,3.63,0,0,0,.14,1.12,0.63,0.63,0,0,0,.56.28,0.73,0.73,0,0,0,.49-0.15,4.11,4.11,0,0,0,.7-0.42l0.07,0.77a3.64,3.64,0,0,1-1.12,1.33,2.26,2.26,0,0,1-1.26.42,1.64,1.64,0,0,1-1.4-.56,3.16,3.16,0,0,1-.77-1.68,9.93,9.93,0,0,1-2.38,1.75,0.55,0.55,0,0,0-.28.14m0-14.41v1h-0.28a3.35,3.35,0,0,0-1.68.49,1.27,1.27,0,0,0-.7,1.12,1.86,1.86,0,0,0,.21.77,8.38,8.38,0,0,0,.56,1.26l-1.12.49v-4.2a7.58,7.58,0,0,1,3-.91m0,6.86v1a6.83,6.83,0,0,0-1.47.78,2.35,2.35,0,0,0-1.19,2,2.1,2.1,0,0,0,.63,1.61,2.28,2.28,0,0,0,1.68.63h0.35v1.54a4.94,4.94,0,0,1-2,.35,4.24,4.24,0,0,1-1-.07V25a19,19,0,0,1,3-1.25m0,23.64v2.38a4.66,4.66,0,0,0-.21,1.47A6.12,6.12,0,0,0,109.2,53v3.57c-0.14.14-.28,0.35-0.42,0.5a1.19,1.19,0,0,0-.28.77,0.66,0.66,0,0,0,.42.62,0.32,0.32,0,0,0,.28.07V61h-0.07a6.49,6.49,0,0,0-1.4,1.12,1.77,1.77,0,0,0,.7,2.8,2.25,2.25,0,0,0,.77.28v1.9a6,6,0,0,1-2.38-.84,3.81,3.81,0,0,1-.63-0.49V61.91a6.2,6.2,0,0,1,1.68-1.12,2.71,2.71,0,0,1-1.12-.77,1.43,1.43,0,0,1-.42-1,2.6,2.6,0,0,1,.56-1.4,10.83,10.83,0,0,1,1.82-1.81A5.5,5.5,0,0,1,106.89,54a4.12,4.12,0,0,1-.63-2.17,4.54,4.54,0,0,1,1.61-3.57,4.39,4.39,0,0,1,1.33-.84m0,29.45v13.5a5.79,5.79,0,0,1-1-3.78V80.23a3.33,3.33,0,0,0-.35-1.81,1.83,1.83,0,0,0-1.54-.49h-0.07V77.09Zm-3,8.88a7.69,7.69,0,0,0,.14-1.82,6,6,0,0,0-.14-1.61v3.43Zm0-67.92V22l-0.91.42c-0.21-.35-0.42-0.7-0.56-1a2.31,2.31,0,0,1-.14-1,3,3,0,0,1,1.54-2.59Zm0,7.2v6.58a2.71,2.71,0,0,1-1.33-.84,3.17,3.17,0,0,1-.91-2.38,3.57,3.57,0,0,1,1.75-3c0.14-.07.28-0.21,0.49-0.35m0,36.87v3.84a2.64,2.64,0,0,1-.84-2,2.51,2.51,0,0,1,.63-1.68l0.21-.2m0,16H106V77.09h0.14v0.84Zm0,4.4a7.15,7.15,0,0,0-1.82-3.43,6.72,6.72,0,0,0-5-2.1,3.88,3.88,0,0,0-.91.07v0.83h0.56a3.78,3.78,0,0,1,3.29,2.1,10.69,10.69,0,0,1,1.26,5.6,7.21,7.21,0,0,1-1,3.92A3,3,0,0,1,100,90.8a3,3,0,0,1-1.47-.42V91.5a7.17,7.17,0,0,0,1.2.14,6,6,0,0,0,4.75-2.24,6.83,6.83,0,0,0,1.75-3.64V82.33Zm-7.7-20.7V59.32a5.65,5.65,0,0,0,1.55.27,6.1,6.1,0,0,0,2.17-.48,8.65,8.65,0,0,0,2.17-1.47l0.56,0.49a7.15,7.15,0,0,1-2.66,2.59,6.65,6.65,0,0,1-3.43,1,0.69,0.69,0,0,1-.35-0.07m0-9.17v-1h3.36a4.36,4.36,0,0,0-.91-2.73,2.79,2.79,0,0,0-2.3-1H98.49V46.87c0.21,0,.35-0.07.56-0.07a5.7,5.7,0,0,1,4.06,1.54,6.11,6.11,0,0,1,1.82,4.13H98.49Zm0-20.92V14.69A3.24,3.24,0,0,0,99,14.2h0.56v3h3.64v0.91H99.54v9.8a3.89,3.89,0,0,0,.35,1.89,2,2,0,0,0,1.4.49,7,7,0,0,0,.77-0.14c0.28-.07.77-0.22,1.33-0.35v0.91a5.64,5.64,0,0,1-1.61.77,7.71,7.71,0,0,1-1.88.21,4.38,4.38,0,0,1-1.41-.14m0-16.86V31.55A1.72,1.72,0,0,1,97.59,31a3.59,3.59,0,0,1-.7-2.59V18.11H94.65v-0.7A16,16,0,0,0,97,16a12.64,12.64,0,0,0,1.46-1.33m0,32.18v0.84a3.06,3.06,0,0,0-2.16,1,4.89,4.89,0,0,0-1.12,2.73h3.28v1H95.07v0.84a7,7,0,0,0,1.4,4.48,4.29,4.29,0,0,0,2,1.54v2.31a5.65,5.65,0,0,1-4.12-2,5.89,5.89,0,0,1-.91-1.32v-7.7a8.15,8.15,0,0,1,1-1.61,5.75,5.75,0,0,1,4-2.17m0,30v0.83a3.24,3.24,0,0,0-2.16,1.47,7.33,7.33,0,0,0-1,4,9.77,9.77,0,0,0,1.33,5.39,5,5,0,0,0,1.81,1.82V91.5a6.86,6.86,0,0,1-3.91-2,7.84,7.84,0,0,1-1.12-1.54V80.38a5.4,5.4,0,0,1,1.12-1.47,6.12,6.12,0,0,1,3.91-2m-5-15.46H94.3V60.51a4.34,4.34,0,0,1-.84-0.28v1.18Zm0-37.63V16.86A11.31,11.31,0,0,1,94,20.28a12.1,12.1,0,0,1-.49,3.5m-2.87-2.45a13.06,13.06,0,0,0-2.17-7.9,6.66,6.66,0,0,0-5.25-3v-1h0.07A12.59,12.59,0,0,1,87,10,10.35,10.35,0,0,1,90,11.75a10.64,10.64,0,0,1,2.87,3.78,10.16,10.16,0,0,1,.56,1.33v6.93c-0.13.35-.28,0.77-0.42,1.19a11.53,11.53,0,0,1-2.38,3.78,11.68,11.68,0,0,1-3.43,2.38,9.81,9.81,0,0,1-3.92.77H83.17v-1h0.49a5.91,5.91,0,0,0,5.1-2.59,11.87,11.87,0,0,0,1.82-7m2.87,29.31v7.7a9.27,9.27,0,0,1,0-7.7m0,9.59A0.6,0.6,0,0,1,93,60a5,5,0,0,1-1.19-.91l-5.39-6.23c-0.49-.49-0.91-1-1.32-1.33A7.94,7.94,0,0,0,84,50.79V50.65a7.21,7.21,0,0,0,4.19-1.75,5,5,0,0,0,1.61-3.64,4.37,4.37,0,0,0-2.51-4.13A13,13,0,0,0,83.17,40v1.12a5.86,5.86,0,0,1,1.61.84,4.23,4.23,0,0,1,1.54,3.5,3.76,3.76,0,0,1-1.61,3.35,4.58,4.58,0,0,1-1.54.78v4l6.93,7.83h3.36V60.23Zm0,20.14v7.55a8.46,8.46,0,0,1-.91-3.84,8.08,8.08,0,0,1,.91-3.71M83.17,91.78V90.87h0.63a7.23,7.23,0,0,0,4.62-1.54,7.8,7.8,0,0,0,2.73-4.27H92l-0.42,4.83a17,17,0,0,1-3.63,1.4,15.25,15.25,0,0,1-4,.49H83.17Zm0-21.55V69.32c0.22,0,.42-0.07.63-0.07a17.3,17.3,0,0,1,3.85.42,14.77,14.77,0,0,1,3.5,1.26l0.56,4.55H90.87a8.62,8.62,0,0,0-3-3.92,7.51,7.51,0,0,0-4.48-1.33H83.17Zm0-59.81H82.76a5.94,5.94,0,0,0-5.11,2.52c-1.26,1.68-1.82,4-1.82,7a13.26,13.26,0,0,0,2.17,8,6.64,6.64,0,0,0,5.18,3v1a10.72,10.72,0,0,1-7.76-3.15,11,11,0,0,1-3-8.11,11.73,11.73,0,0,1,.84-4.41,10.25,10.25,0,0,1,2.52-3.71,9.86,9.86,0,0,1,3.43-2.31,10.59,10.59,0,0,1,4-.77v1Zm0,29.59v1.12a8.52,8.52,0,0,0-2.87-.42,5.4,5.4,0,0,0-1.46.14,0.62,0.62,0,0,0-.29.56l0.07,8.54a3.52,3.52,0,0,1,.91.07H80.1a10.09,10.09,0,0,0,3.08-.42v4L83,53.37a10.46,10.46,0,0,0-2.17-2A3.38,3.38,0,0,0,79,50.79a0.31,0.31,0,0,0-.21.07H78.63l-0.07,6.57a3.2,3.2,0,0,0,.7,2.24,4.31,4.31,0,0,0,2.45.84v0.91H72.12V60.51a4.19,4.19,0,0,0,2.59-.77,3,3,0,0,0,.77-2.31V43.72a3.17,3.17,0,0,0-.7-2.24,4.58,4.58,0,0,0-2.66-.77V39.8h7.42a28,28,0,0,1,3.63.21m0,29.31v0.91a6.3,6.3,0,0,0-5.24,2.66A11.09,11.09,0,0,0,75.83,80a13.09,13.09,0,0,0,2.24,7.9,6.73,6.73,0,0,0,5.1,2.94v0.91a11.17,11.17,0,0,1-7.55-3,10.39,10.39,0,0,1-3.22-8A12.39,12.39,0,0,1,73,76.88a10.65,10.65,0,0,1,1.75-3.43,9.83,9.83,0,0,1,3.85-3.08,12.23,12.23,0,0,1,4.54-1"/></svg>